# This file uses centimeters as units for non-parametric coordinates.

mtllib boxsimplefloor.mtl
g default
v -8.000000 -0.500000 10.000000
v 8.000000 -0.500000 10.000000
v -8.000000 0.000000 10.000000
v 8.000000 0.000000 10.000000
v -8.000000 0.000000 -4.000000
v 8.000000 0.000000 -4.000000
v -8.000000 -0.500000 -4.000000
v 8.000000 -0.500000 -4.000000
v -8.000000 0.000000 5.000000
v 8.000000 0.000000 5.000000
v 8.000000 -0.500000 5.000000
v -8.000000 -0.500000 5.000000
v -8.000000 -0.500000 1.000000
v 8.000000 -0.500000 1.000000
v 8.000000 0.000000 1.000000
v -8.000000 0.000000 1.000000
v 6.000000 -0.500000 10.000000
v 6.000000 -0.500000 5.000000
v 6.000000 -0.500000 1.000000
v 6.000000 -0.500000 -4.000000
v 6.000000 0.000000 -4.000000
v 6.000000 0.000000 1.000000
v 6.000000 0.000000 5.000000
v 6.000000 0.000000 10.000000
v -2.000000 -0.500000 10.000000
v -2.000000 -0.500000 5.000000
v -2.000000 -0.500000 1.000000
v -2.000000 -0.500000 -4.000000
v -2.000000 0.000000 -4.000000
v -2.000000 0.000000 1.000000
v -2.000000 0.000000 5.000000
v -2.000000 0.000000 10.000000
v 2.000000 -0.500000 5.000000
v 2.000000 -0.500000 10.000000
v 2.000000 0.000000 10.000000
v 2.000000 0.000000 5.000000
v 2.000000 0.000000 1.000000
v 2.000000 0.000000 -4.000000
v 2.000000 -0.500000 -4.000000
v 2.000000 -0.500000 1.000000
v -8.000000 -0.500000 0.000000
v -2.000000 -0.500000 0.000000
v 2.000000 -0.500000 0.000000
v 6.000000 -0.500000 0.000000
v 8.000000 -0.500000 0.000000
v 8.000000 0.000000 -0.000000
v 6.000000 0.000000 -0.000000
v 2.000000 0.000000 -0.000000
v -2.000000 0.000000 -0.000000
v -8.000000 0.000000 -0.000000
v -2.000000 -0.500000 -16.000000
v -2.000000 0.000000 -16.000000
v 2.000000 0.000000 -16.000000
v 2.000000 -0.500000 -16.000000
v 18.000000 0.000000 5.000000
v 18.000000 -0.500000 5.000000
v 18.000000 -0.500000 1.000000
v 18.000000 0.000000 1.000000
v -2.000000 0.000000 19.000000
v -2.000000 -0.500000 19.000000
v 2.000000 -0.500000 19.000000
v 2.000000 0.000000 19.000000
v 6.000000 -0.500000 19.000000
v 6.000000 0.000000 19.000000
v -20.000000 -0.500000 -4.000000
v -20.000000 -0.500000 0.000000
v -20.000000 0.000000 -0.000000
v -20.000000 0.000000 -4.000000
v -2.000000 -0.500000 -10.000000
v -2.000000 0.000000 -10.000000
v 2.000000 0.000000 -10.000000
v 2.000000 -0.500000 -10.000000
v -8.000000 -0.500000 -10.000000
v -8.000000 0.000000 -10.000000
v -8.000000 0.000000 -16.000000
v -8.000000 -0.500000 -16.000000
v 8.000000 0.000000 -10.000000
v 8.000000 -0.500000 -10.000000
v 8.000000 -0.500000 -16.000000
v 8.000000 0.000000 -16.000000
vt 0.318837 0.645451
vt 0.312308 0.645451
vt 0.312308 0.593221
vt 0.318837 0.593221
vt 0.318837 0.671566
vt 0.312308 0.671566
vt 0.312308 0.619336
vt 0.318837 0.619336
vt 0.318837 0.684624
vt 0.312308 0.684624
vt 0.312308 0.554048
vt 0.318837 0.554048
vt 0.312308 0.651980
vt 0.312308 0.586692
vt 0.318837 0.586692
vt 0.318837 0.651980
vt 0.318837 0.651980
vt 0.312308 0.651980
vt 0.312308 0.638922
vt 0.318837 0.638922
vt 0.312308 0.586692
vt 0.318837 0.586692
vt 0.312308 0.645451
vt 0.312308 0.593221
vt 0.318837 0.593221
vt 0.318837 0.645451
vt 0.312308 0.580163
vt 0.318837 0.580163
vt 0.318837 0.658509
vt 0.312308 0.658509
vt 0.318837 0.658509
vt 0.312308 0.658509
vt 0.312308 0.580163
vt 0.318837 0.580163
vt 0.318837 0.678095
vt 0.312308 0.678095
vt 0.312308 0.560576
vt 0.318837 0.560576
vt 0.312308 0.560576
vt 0.318837 0.560576
vt 0.318837 0.678095
vt 0.312308 0.678095
vt 0.312308 0.580163
vt 0.318837 0.580163
vt 0.318837 0.658509
vt 0.312308 0.658509
vt 0.318837 0.658509
vt 0.312308 0.658509
vt 0.312308 0.580163
vt 0.318837 0.580163
vt 0.723451 0.362848
vt 0.775682 0.362848
vt 0.775682 0.388963
vt 0.723451 0.388963
vt 0.723451 0.310617
vt 0.775682 0.310617
vt 0.840970 0.362848
vt 0.840970 0.388963
vt 0.775682 0.519540
vt 0.723451 0.519540
vt 0.710394 0.388963
vt 0.710394 0.362848
vt 0.723451 0.258387
vt 0.775682 0.258387
vt 0.840970 0.310617
vt 0.710394 0.310617
vt 0.658163 0.362848
vt 0.658163 0.388963
vt 0.775682 0.180041
vt 0.723451 0.180041
vt 0.840970 0.258387
vt 0.710394 0.258387
vt 0.958489 0.310617
vt 0.958489 0.362848
vt 0.658163 0.310617
vt 0.840970 0.180041
vt 0.710394 0.180041
vt 0.958489 0.258387
vt 0.658163 0.258387
vt 0.658163 0.180041
vt 0.579817 0.310617
vt 0.579817 0.258387
vt 0.658163 0.023349
vt 0.710394 0.023349
vt 0.501471 0.310617
vt 0.501471 0.258387
vt 0.579817 0.388963
vt 0.501471 0.388963
vt 0.501471 0.180041
vt 0.579817 0.180041
vt 0.775682 0.362848
vt 0.723451 0.362848
vt 0.723451 0.388963
vt 0.775682 0.388963
vt 0.775682 0.310617
vt 0.723451 0.310617
vt 0.710394 0.362848
vt 0.710393 0.388963
vt 0.723451 0.519540
vt 0.775682 0.519540
vt 0.840970 0.362848
vt 0.840970 0.388963
vt 0.775682 0.258387
vt 0.723451 0.258387
vt 0.710393 0.310617
vt 0.840970 0.310617
vt 0.658163 0.362848
vt 0.658163 0.388963
vt 0.723451 0.180041
vt 0.775682 0.180041
vt 0.710394 0.258387
vt 0.840970 0.258387
vt 0.658163 0.310617
vt 0.958489 0.362848
vt 0.958489 0.310617
vt 0.710394 0.180041
vt 0.840970 0.180041
vt 0.658163 0.258387
vt 0.958489 0.258387
vt 0.658163 0.180041
vt 0.579817 0.258387
vt 0.579817 0.310617
vt 0.710393 0.023349
vt 0.658163 0.023349
vt 0.501471 0.258387
vt 0.501471 0.310617
vt 0.579817 0.180041
vt 0.501471 0.180041
vt 0.501471 0.388963
vt 0.579817 0.388963
vt 0.318837 0.632394
vt 0.312308 0.632394
vt 0.312308 0.606278
vt 0.318837 0.606278
vt 0.318837 0.606278
vt 0.312308 0.606278
vt 0.312308 0.580163
vt 0.318837 0.580163
vt 0.318837 0.658509
vt 0.312308 0.658509
vt 0.318837 0.645451
vt 0.312308 0.645451
vt 0.312308 0.593221
vt 0.318837 0.593221
vt 0.318837 0.723797
vt 0.312308 0.723797
vt 0.312308 0.514875
vt 0.318837 0.514875
vt 0.318837 0.671566
vt 0.312308 0.671566
vt 0.312308 0.619336
vt 0.318837 0.619336
vt 0.312308 0.567105
vt 0.318837 0.567105
vt 0.312308 0.580163
vt 0.312308 0.501817
vt 0.318837 0.501817
vt 0.318837 0.580163
vt 0.318837 0.736855
vt 0.312308 0.736855
vt 0.312308 0.658509
vt 0.312308 0.580163
vt 0.318837 0.580163
vt 0.318837 0.658509
vt 0.318837 0.684624
vt 0.312308 0.684624
vt 0.312308 0.554048
vt 0.318837 0.554048
vt 0.318837 0.684624
vt 0.312308 0.684624
vt 0.312308 0.554048
vt 0.318837 0.554048
vt 0.312308 0.540990
vt 0.318837 0.540990
vt 0.318837 0.697682
vt 0.312308 0.697682
vt 0.312308 0.580163
vt 0.318837 0.580163
vt 0.318837 0.658509
vt 0.312308 0.658509
vt 0.318837 0.658509
vt 0.312308 0.658509
vt 0.312308 0.580163
vt 0.318837 0.580163
vn 0.000000 0.000000 1.000000
vn 0.000000 0.000000 1.000000
vn 0.000000 0.000000 1.000000
vn 0.000000 0.000000 1.000000
vn 0.000000 1.000000 0.000000
vn 0.000000 1.000000 0.000000
vn 0.000000 1.000000 0.000000
vn 0.000000 1.000000 0.000000
vn 0.000000 0.000000 -1.000000
vn 0.000000 0.000000 -1.000000
vn 0.000000 0.000000 -1.000000
vn 0.000000 0.000000 -1.000000
vn 0.000000 -1.000000 0.000000
vn 0.000000 -1.000000 0.000000
vn 0.000000 -1.000000 0.000000
vn 0.000000 -1.000000 0.000000
vn 1.000000 0.000000 0.000000
vn 1.000000 0.000000 0.000000
vn 1.000000 0.000000 0.000000
vn 1.000000 0.000000 0.000000
vn -1.000000 -0.000000 0.000000
vn -1.000000 -0.000000 0.000000
vn -1.000000 0.000000 0.000000
vn -1.000000 0.000000 0.000000
vn 0.000000 1.000000 0.000000
vn 0.000000 1.000000 0.000000
vn 1.000000 0.000000 0.000000
vn 1.000000 0.000000 0.000000
vn 1.000000 0.000000 0.000000
vn 1.000000 0.000000 0.000000
vn 0.000000 -1.000000 0.000000
vn 0.000000 -1.000000 0.000000
vn -1.000000 0.000000 0.000000
vn -1.000000 0.000000 0.000000
vn 0.000000 -1.000000 0.000000
vn 0.000000 -1.000000 0.000000
vn 1.000000 0.000000 0.000000
vn 1.000000 0.000000 0.000000
vn 1.000000 0.000000 0.000000
vn 1.000000 0.000000 0.000000
vn 0.000000 1.000000 0.000000
vn 0.000000 1.000000 0.000000
vn -1.000000 -0.000001 0.000000
vn -1.000000 -0.000001 0.000000
vn 0.000000 -1.000000 0.000000
vn 0.000000 -1.000000 0.000000
vn 0.000000 -1.000000 0.000000
vn 0.000000 -1.000000 0.000000
vn 0.000000 -1.000000 0.000000
vn 0.000000 -1.000000 0.000000
vn 0.000000 -1.000000 0.000000
vn 0.000000 -1.000000 0.000000
vn 0.000000 0.000000 -1.000000
vn 0.000000 0.000000 -1.000000
vn 0.000000 0.000000 -1.000000
vn 0.000000 0.000000 -1.000000
vn 0.000000 1.000000 0.000000
vn 0.000000 1.000000 -0.000000
vn 0.000000 1.000000 0.000000
vn 0.000000 1.000000 0.000000
vn 0.000000 1.000000 0.000000
vn 0.000000 1.000000 0.000000
vn 0.000000 1.000000 0.000000
vn 0.000000 1.000000 0.000000
vn 0.000000 0.000000 1.000000
vn 0.000000 0.000000 1.000000
vn 0.000000 0.000000 1.000000
vn 0.000000 0.000000 1.000000
vn 0.000000 -1.000000 0.000000
vn 0.000000 -1.000000 0.000000
vn 0.000000 -1.000000 0.000000
vn 0.000000 -1.000000 0.000000
vn 0.000000 0.000000 -1.000000
vn 0.000000 0.000000 -1.000000
vn 0.000000 0.000000 -1.000000
vn 0.000000 0.000000 -1.000000
vn 0.000000 1.000000 0.000000
vn 0.000000 1.000000 -0.000000
vn 0.000000 1.000000 0.000000
vn 0.000000 1.000000 0.000000
vn 0.000000 0.000000 1.000000
vn 0.000000 0.000000 1.000000
vn 0.000000 0.000000 1.000000
vn 0.000000 0.000000 1.000000
vn 0.000000 0.000000 1.000000
vn 0.000000 0.000000 1.000000
vn 0.000000 0.000000 -1.000000
vn 0.000000 0.000000 -1.000000
vn 0.000000 -1.000000 0.000000
vn 0.000000 -1.000000 0.000000
vn 0.000000 -1.000000 0.000000
vn 0.000000 -1.000000 0.000000
vn 0.000000 -1.000000 0.000000
vn 1.000000 0.000000 0.000000
vn 1.000000 0.000000 0.000000
vn 0.000000 1.000000 0.000000
vn 0.000000 1.000000 0.000000
vn 0.000000 1.000000 0.000000
vn 0.000000 1.000000 -0.000000
vn 0.000000 1.000000 -0.000000
vn -1.000000 0.000000 0.000000
vn -1.000000 0.000000 0.000000
vn -1.000000 0.000000 0.000000
vn -1.000000 0.000000 0.000000
vn -1.000000 0.000000 0.000000
vn -1.000000 0.000000 0.000000
vn -1.000000 0.000000 0.000000
vn -1.000000 0.000000 0.000000
vn 0.000000 1.000000 0.000000
vn 0.000000 1.000000 0.000000
vn 0.000000 1.000000 0.000000
vn 0.000000 1.000000 0.000000
vn 1.000000 0.000000 0.000000
vn 1.000000 0.000000 0.000000
vn 1.000000 0.000000 0.000000
vn 1.000000 0.000000 0.000000
vn 0.000000 -1.000000 0.000000
vn 0.000000 -1.000000 0.000000
vn 0.000000 -1.000000 0.000000
vn 0.000000 -1.000000 0.000000
vn 0.000000 0.000002 1.000000
vn 0.000000 0.000002 1.000000
vn 0.000000 0.000002 1.000000
vn 0.000000 0.000002 1.000000
vn 0.000000 -1.000000 0.000000
vn 0.000000 -1.000000 0.000000
vn 0.000000 -1.000000 0.000000
vn 0.000000 -1.000000 0.000000
vn 0.000000 -0.000002 -1.000000
vn 0.000000 -0.000002 -1.000000
vn 0.000000 -0.000002 -1.000000
vn 0.000000 -0.000002 -1.000000
vn 0.000000 1.000000 0.000000
vn 0.000000 1.000000 0.000000
vn 0.000000 1.000000 0.000000
vn 0.000000 1.000000 0.000000
vn -1.000000 0.000000 0.000000
vn -1.000000 0.000000 0.000000
vn -1.000000 0.000000 0.000000
vn -1.000000 0.000000 0.000000
vn 0.000000 -1.000000 0.000000
vn 0.000000 -1.000000 0.000000
vn 0.000000 -1.000000 0.000000
vn 0.000000 -1.000000 0.000000
vn 0.000000 1.000000 0.000000
vn 0.000000 1.000000 0.000000
vn 0.000000 1.000000 0.000000
vn 0.000000 1.000000 0.000000
vn 0.000000 -1.000000 0.000000
vn 0.000000 -1.000000 0.000000
vn 0.000000 -1.000000 0.000000
vn 0.000000 -1.000000 0.000000
vn 1.000000 0.000000 0.000000
vn 1.000000 0.000000 0.000000
vn 1.000000 0.000000 0.000000
vn 1.000000 0.000000 0.000000
vn 0.000000 1.000000 0.000000
vn 0.000000 1.000000 0.000000
vn 0.000000 1.000000 0.000000
vn 0.000000 1.000000 0.000000
vn 0.000000 -1.000000 0.000000
vn 0.000000 -1.000000 0.000000
vn 0.000000 -1.000000 0.000000
vn 0.000000 -1.000000 0.000000
vn 0.000000 0.000001 1.000000
vn 0.000000 0.000001 1.000000
vn 0.000000 0.000001 1.000000
vn 0.000000 0.000001 1.000000
vn 0.000000 1.000000 0.000000
vn 0.000000 1.000000 0.000000
vn 0.000000 1.000000 0.000000
vn 0.000000 1.000000 0.000000
vn 0.000000 0.000000 -1.000000
vn 0.000000 0.000000 -1.000000
vn 0.000000 0.000000 -1.000000
vn 0.000000 0.000000 -1.000000
vn -1.000000 0.000000 0.000000
vn -1.000000 0.000000 0.000000
vn -1.000000 0.000000 0.000000
vn -1.000000 0.000000 0.000000
vn 0.000000 1.000000 0.000000
vn 0.000000 1.000000 0.000000
vn 1.000000 0.000000 0.000000
vn 1.000000 0.000000 0.000000
vn 1.000000 0.000000 0.000000
vn 1.000000 0.000000 0.000000
vn 0.000000 -1.000000 0.000000
vn 0.000000 -1.000000 0.000000
vn 0.000000 0.000000 1.000000
vn 0.000000 0.000000 1.000000
vn 0.000000 0.000000 1.000000
vn 0.000000 0.000000 1.000000
vn 0.000000 1.000000 0.000000
vn 0.000000 1.000000 0.000000
vn 0.000000 1.000000 0.000000
vn 0.000000 1.000000 0.000000
vn 0.000000 0.000000 -1.000000
vn 0.000000 0.000000 -1.000000
vn 0.000000 0.000000 -1.000000
vn 0.000000 0.000000 -1.000000
vn 0.000000 -1.000000 0.000000
vn 0.000000 -1.000000 0.000000
vn 0.000000 -1.000000 0.000000
vn 0.000000 -1.000000 0.000000
vn 0.000000 0.000000 1.000000
vn 0.000000 0.000000 1.000000
vn 0.000000 0.000000 1.000000
vn 0.000000 0.000000 1.000000
vn 0.000000 -1.000000 0.000000
vn 0.000000 -1.000000 0.000000
vn 0.000000 -1.000000 0.000000
vn 0.000000 -1.000000 0.000000
vn 0.000000 0.000000 -1.000000
vn 0.000000 0.000000 -1.000000
vn 0.000000 0.000000 -1.000000
vn 0.000000 0.000000 -1.000000
vn 0.000000 1.000000 0.000000
vn 0.000000 1.000000 0.000000
vn 0.000000 1.000000 0.000000
vn 0.000000 1.000000 0.000000
s off
g pCube4
usemtl initialShadingGroup
f 24/131/1 17/132/2 2/133/3 4/134/4
s 1
f 22/51/5 23/52/6 10/53/7 15/54/8
s 2
f 20/135/9 21/136/10 6/137/11 8/138/12
s 3
f 18/91/13 19/92/14 14/93/15 11/94/16
s off
f 55/1/17 56/2/18 57/3/19 58/4/20
s 4
f 16/5/21 13/6/22 12/7/23 9/8/24
s 1
f 23/52/6 24/57/25 4/58/26 10/53/7
s off
f 2/13/27 11/14/28 10/15/29 4/16/30
s 3
f 17/101/31 18/91/13 11/94/16 2/102/32
s 4
f 9/8/24 12/7/23 1/11/33 3/12/34
s 3
f 19/92/14 44/97/35 45/98/36 14/93/15
s 5
f 15/17/37 14/18/38 45/19/39 46/20/40
s 1
f 46/61/41 47/62/42 22/51/5 15/54/8
s 4
f 50/9/43 41/10/44 13/6/22 16/5/21
s 3
f 25/112/45 26/103/46 33/95/47 34/106/48
f 26/103/46 27/104/49 40/96/50 33/95/47
f 27/104/49 42/111/51 43/105/52 40/96/50
s off
f 51/141/53 52/142/54 53/143/55 54/144/56
s 1
f 48/66/57 49/72/58 30/63/59 37/55/60
f 30/63/59 31/64/61 36/56/62 37/55/60
f 31/64/61 32/71/63 35/65/64 36/56/62
s 8
f 59/149/65 60/150/66 61/151/67 62/152/68
s 3
f 12/110/69 26/103/46 25/112/45 1/117/70
f 13/109/71 27/104/49 26/103/46 12/110/69
f 41/116/72 42/111/51 27/104/49 13/109/71
s off
f 5/155/73 29/156/74 28/157/75 7/158/76
s 1
f 16/70/77 30/63/59 49/72/58 50/77/78
f 9/69/79 31/64/61 30/63/59 16/70/77
f 3/76/80 32/71/63 31/64/61 9/69/79
s off
f 1/161/81 25/162/82 32/163/83 3/164/84
s 3
f 34/106/48 33/95/47 18/91/13 17/101/31
s 8
f 62/152/68 61/151/67 63/153/85 64/154/86
s 1
f 36/56/62 35/65/64 24/57/25 23/52/6
f 37/55/60 36/56/62 23/52/6 22/51/5
f 47/62/42 48/66/57 37/55/60 22/51/5
s 2
f 39/139/87 38/140/88 21/136/10 20/135/9
s 3
f 40/96/50 43/105/52 44/97/35 19/92/14
f 33/95/47 40/96/50 19/92/14 18/91/13
f 7/120/89 28/118/90 42/111/51 41/116/72
f 43/105/52 42/111/51 28/118/90 39/113/91
f 44/97/35 43/105/52 39/113/91 20/107/92
f 45/98/36 44/97/35 20/107/92 8/108/93
s 5
f 46/20/40 45/19/39 8/21/94 6/22/95
s 1
f 21/67/96 47/62/42 46/61/41 6/68/97
f 38/75/98 48/66/57 47/62/42 21/67/96
f 29/79/99 49/72/58 48/66/57 38/75/98
f 50/77/78 49/72/58 29/79/99 5/80/100
s off
f 65/23/101 66/24/102 67/25/103 68/26/104
f 73/27/105 74/28/106 75/29/107 76/30/108
s 9
f 70/82/109 71/81/110 53/85/111 52/86/112
s off
f 77/31/113 78/32/114 79/33/115 80/34/116
s 10
f 72/122/117 69/121/118 51/125/119 54/126/120
s off
f 10/165/121 11/166/122 56/167/123 55/168/124
f 11/94/125 14/93/126 57/99/127 56/100/128
f 14/169/129 15/170/130 58/171/131 57/172/132
f 15/54/133 10/53/134 55/59/135 58/60/136
f 32/35/137 25/36/138 60/37/139 59/38/140
f 25/112/141 34/106/142 61/115/143 60/119/144
f 35/65/145 32/71/146 59/78/147 62/73/148
f 34/106/149 17/101/150 63/114/151 61/115/152
f 17/39/153 24/40/154 64/41/155 63/42/156
f 24/57/157 35/65/158 62/73/159 64/74/160
f 7/120/161 41/116/162 66/123/163 65/124/164
f 41/173/165 50/174/166 67/175/167 66/176/168
f 50/77/169 5/80/170 68/83/171 67/84/172
f 5/155/173 7/158/174 65/159/175 68/160/176
f 28/43/177 29/44/178 70/45/179 69/46/180
s 9
f 29/79/181 38/75/182 71/81/110 70/82/109
s off
f 38/47/183 39/48/184 72/49/185 71/50/186
s 10
f 39/113/187 28/118/188 69/121/118 72/122/117
s off
f 69/177/189 70/178/190 74/179/191 73/180/192
f 70/82/193 52/86/194 75/89/195 74/90/196
f 52/142/197 51/141/198 76/145/199 75/146/200
f 51/125/201 69/121/202 73/127/203 76/128/204
f 71/181/205 72/182/206 78/183/207 77/184/208
f 72/122/209 54/126/210 79/129/211 78/130/212
f 54/144/213 53/143/214 80/147/215 79/148/216
f 53/85/217 71/81/218 77/87/219 80/88/220
