# This file uses centimeters as units for non-parametric coordinates.

mtllib deltasimplefloor.mtl
g default
v -8.000000 -1.000000 10.000000
v 8.000000 -1.000000 10.000000
v -8.000000 -0.500000 10.000000
v 8.000000 -0.500000 10.000000
v -8.000000 -0.500000 -12.000000
v 8.000000 -0.500000 -12.000000
v -8.000000 -1.000000 -12.000000
v 8.000000 -1.000000 -12.000000
v -8.000000 -0.500000 -8.000000
v 8.000000 -0.500000 -8.000000
v 8.000000 -1.000000 -8.000000
v -8.000000 -1.000000 -8.000000
v -8.000000 -0.500000 -4.000000
v 8.000000 -0.500000 -4.000000
v 8.000000 -1.000000 -4.000000
v -8.000000 -1.000000 -4.000000
v 21.000000 -0.500000 -4.000000
v 21.000000 -1.000000 -4.000000
v 21.000000 -1.000000 -8.000000
v 21.000000 -0.500000 -8.000000
v -8.000000 -1.000000 -8.000000
v -8.000000 -0.500000 -8.000000
v -8.000000 -1.000000 -4.000000
v -8.000000 -0.500000 -4.000000
v -8.000000 -0.500000 0.000000
v 8.000000 -0.500000 0.000000
v 8.000000 -1.000000 -0.000000
v -8.000000 -1.000000 -0.000000
v -13.000000 -1.000000 -8.000000
v -13.000000 -0.500000 -8.000000
v -13.000000 -1.000000 -4.000000
v -13.000000 -0.500000 -4.000000
v -13.000000 -1.000000 -4.000000
v -13.000000 -0.500000 -4.000000
v -13.000000 -1.000000 -0.000000
v -13.000000 -0.500000 0.000000
v 12.000000 -0.500000 -4.000000
v 12.000000 -1.000000 -4.000000
v 12.000000 -1.000000 -8.000000
v 12.000000 -0.500000 -8.000000
v 12.000000 -0.500000 1.000000
v 12.000000 -1.000000 1.000000
v 21.000000 -1.000000 1.000000
v 21.000000 -0.500000 1.000000
v 12.000000 -1.000000 -14.000000
v 12.000000 -0.500000 -14.000000
v 21.000000 -0.500000 -14.000000
v 21.000000 -1.000000 -14.000000
v 2.000000 -1.000000 10.000000
v 2.000000 -1.000000 -0.000000
v 2.000000 -1.000000 -4.000000
v 2.000000 -1.000000 -8.000000
v 2.000000 -1.000000 -12.000000
v 2.000000 -0.500000 -12.000000
v 2.000000 -0.500000 -8.000000
v 2.000000 -0.500000 -4.000000
v 2.000000 -0.500000 0.000000
v 2.000000 -0.500000 10.000000
v -2.000000 -1.000000 10.000000
v -2.000000 -1.000000 -0.000000
v -2.000000 -1.000000 -4.000000
v -2.000000 -1.000000 -8.000000
v -2.000000 -1.000000 -12.000000
v -2.000000 -0.500000 -12.000000
v -2.000000 -0.500000 -8.000000
v -2.000000 -0.500000 -4.000000
v -2.000000 -0.500000 0.000000
v -2.000000 -0.500000 10.000000
v -2.000000 -1.000000 -21.000000
v -2.000000 -0.500000 -21.000000
v 2.000000 -0.500000 -21.000000
v 2.000000 -1.000000 -21.000000
v -2.000000 -0.500000 24.000000
v -2.000000 -1.000000 24.000000
v 2.000000 -1.000000 24.000000
v 2.000000 -0.500000 24.000000
v -2.000000 -0.500000 18.000000
v -2.000000 -1.000000 18.000000
v 2.000000 -1.000000 18.000000
v 2.000000 -0.500000 18.000000
v -6.000000 -0.500000 18.000000
v -6.000000 -1.000000 18.000000
v -6.000000 -1.000000 24.000000
v -6.000000 -0.500000 24.000000
v 6.000000 -1.000000 18.000000
v 6.000000 -0.500000 18.000000
v 6.000000 -0.500000 24.000000
v 6.000000 -1.000000 24.000000
vt 0.513564 0.463224
vt 0.506591 0.463224
vt 0.506591 0.407438
vt 0.513564 0.407438
vt 0.506591 0.463224
vt 0.506591 0.407438
vt 0.513564 0.407438
vt 0.513564 0.463224
vt 0.513564 0.470198
vt 0.506591 0.470198
vt 0.506591 0.414411
vt 0.513564 0.414411
vt 0.513564 0.539931
vt 0.506591 0.539931
vt 0.506591 0.330731
vt 0.513564 0.330731
vt 0.513564 0.463224
vt 0.506591 0.463224
vt 0.506591 0.407438
vt 0.513564 0.407438
vt 0.513564 0.393491
vt 0.506591 0.393491
vt 0.506591 0.337704
vt 0.513564 0.337704
vt 0.506591 0.532958
vt 0.513564 0.532958
vt 0.513564 0.463224
vt 0.506591 0.463224
vt 0.506591 0.407438
vt 0.513564 0.407438
vt 0.513564 0.505064
vt 0.506591 0.505064
vt 0.506591 0.365597
vt 0.513564 0.365597
vt 0.513564 0.470198
vt 0.506591 0.470198
vt 0.506591 0.400464
vt 0.513564 0.400464
vt 0.506591 0.393491
vt 0.513564 0.393491
vt 0.513564 0.477171
vt 0.506591 0.477171
vt 0.506591 0.372571
vt 0.513564 0.372571
vt 0.513564 0.498091
vt 0.506591 0.498091
vt 0.513564 0.498091
vt 0.506591 0.498091
vt 0.506591 0.372571
vt 0.513564 0.372571
vt 0.513564 0.477171
vt 0.506591 0.477171
vt 0.506591 0.393491
vt 0.513564 0.393491
vt 0.506591 0.393491
vt 0.513564 0.393491
vt 0.513564 0.477171
vt 0.506591 0.477171
vt 0.513564 0.491118
vt 0.506591 0.491118
vt 0.506591 0.379544
vt 0.513564 0.379544
vt 0.506591 0.379544
vt 0.513564 0.379544
vt 0.513564 0.491118
vt 0.506591 0.491118
vt 0.229562 0.517937
vt 0.229562 0.462150
vt 0.313242 0.462150
vt 0.313242 0.517937
vt 0.173776 0.517937
vt 0.173776 0.462150
vt 0.229562 0.406363
vt 0.313242 0.406363
vt 0.090095 0.462150
vt 0.090095 0.517937
vt 0.173776 0.406363
vt 0.229562 0.643457
vt 0.173776 0.643457
vt 0.229562 0.350576
vt 0.313242 0.350576
vt 0.369029 0.406363
vt 0.369029 0.462150
vt 0.090095 0.406363
vt 0.173776 0.350576
vt 0.229562 0.211109
vt 0.313242 0.211109
vt 0.494549 0.406363
vt 0.494549 0.462150
vt 0.090095 0.350576
vt 0.173776 0.211109
vt 0.369029 0.336630
vt 0.494549 0.336630
vt 0.494549 0.545830
vt 0.369029 0.545830
vt 0.090095 0.211109
vt 0.020362 0.406363
vt 0.020362 0.350576
vt 0.173776 0.099536
vt 0.229562 0.099536
vt 0.173776 0.015856
vt 0.229562 0.015856
vt 0.117989 0.099536
vt 0.117989 0.015856
vt 0.285349 0.015856
vt 0.285349 0.099536
vt 0.229562 0.462150
vt 0.229562 0.517937
vt 0.313242 0.517937
vt 0.313242 0.462150
vt 0.173776 0.462150
vt 0.173776 0.517937
vt 0.229562 0.406363
vt 0.313242 0.406363
vt 0.090095 0.517937
vt 0.090095 0.462150
vt 0.173776 0.643457
vt 0.229562 0.643457
vt 0.173776 0.406363
vt 0.369029 0.462150
vt 0.369029 0.406363
vt 0.229562 0.350576
vt 0.313242 0.350576
vt 0.090095 0.406363
vt 0.173776 0.350576
vt 0.494549 0.462150
vt 0.494549 0.406363
vt 0.229562 0.211110
vt 0.313242 0.211110
vt 0.090095 0.350576
vt 0.173776 0.211110
vt 0.369029 0.545830
vt 0.494549 0.545830
vt 0.494549 0.336630
vt 0.369029 0.336630
vt 0.090095 0.211110
vt 0.020362 0.350576
vt 0.020362 0.406363
vt 0.229562 0.099536
vt 0.173775 0.099536
vt 0.229562 0.015856
vt 0.173775 0.015856
vt 0.285349 0.099536
vt 0.285349 0.015856
vt 0.117989 0.015856
vt 0.117989 0.099536
vt 0.533331 0.471470
vt 0.589118 0.471470
vt 0.589118 0.541203
vt 0.533331 0.541203
vt 0.533331 0.471470
vt 0.589118 0.471470
vt 0.589118 0.541203
vt 0.533331 0.541203
vt 0.513564 0.477171
vt 0.506591 0.477171
vt 0.506591 0.393491
vt 0.513564 0.393491
vt 0.513564 0.477171
vt 0.506591 0.477171
vt 0.506591 0.393491
vt 0.513564 0.393491
vt 0.513564 0.498091
vt 0.506591 0.498091
vt 0.506591 0.372571
vt 0.513564 0.372571
vt 0.513564 0.498091
vt 0.506591 0.498091
vt 0.506591 0.372571
vt 0.513564 0.372571
vt 0.506591 0.400464
vt 0.513564 0.400464
vt 0.513564 0.470198
vt 0.506591 0.470198
vt 0.506591 0.400464
vt 0.513564 0.400464
vt 0.513564 0.470198
vt 0.506591 0.470198
vt 0.506591 0.400464
vt 0.513564 0.400464
vt 0.513564 0.470198
vt 0.506591 0.470198
vt 0.506591 0.400464
vt 0.513564 0.400464
vt 0.513564 0.470198
vt 0.506591 0.470198
vt 0.513564 0.463224
vt 0.506591 0.463224
vt 0.506591 0.407438
vt 0.513564 0.407438
vt 0.513564 0.463224
vt 0.506591 0.463224
vt 0.506591 0.407438
vt 0.513564 0.407438
vt 0.513564 0.463224
vt 0.506591 0.463224
vt 0.506591 0.407437
vt 0.513564 0.407437
vt 0.513564 0.463224
vt 0.506591 0.463224
vt 0.506591 0.407438
vt 0.513564 0.407438
vt 0.513564 0.519011
vt 0.506591 0.519011
vt 0.506591 0.351651
vt 0.513564 0.351651
vt 0.506591 0.477171
vt 0.506591 0.393491
vt 0.513564 0.393491
vt 0.513564 0.477171
vt 0.506591 0.477171
vt 0.506591 0.393491
vt 0.513564 0.393491
vt 0.513564 0.477171
vt 0.506591 0.407437
vt 0.513564 0.407437
vt 0.513564 0.463224
vt 0.506591 0.463224
vt 0.513564 0.463224
vt 0.506591 0.463224
vt 0.506591 0.407437
vt 0.513564 0.407437
vn 0.000000 0.000000 1.000000
vn 0.000000 0.000000 1.000000
vn 0.000000 0.000000 1.000000
vn 0.000000 0.000000 1.000000
vn 0.000000 1.000000 0.000000
vn 0.000000 1.000000 0.000000
vn 0.000000 1.000000 0.000000
vn 0.000000 1.000000 0.000000
vn 0.000000 0.000000 -1.000000
vn 0.000000 0.000000 -1.000000
vn 0.000000 0.000000 -1.000000
vn 0.000000 0.000000 -1.000000
vn 0.000000 -1.000000 0.000000
vn 0.000000 -1.000000 0.000000
vn 0.000000 -1.000000 0.000000
vn 0.000000 -1.000000 0.000000
vn 1.000000 0.000000 0.000000
vn 1.000000 0.000000 0.000000
vn 1.000000 0.000000 0.000000
vn 1.000000 0.000000 0.000000
vn -1.000000 0.000000 0.000000
vn -1.000000 0.000000 0.000000
vn -1.000000 0.000000 0.000000
vn -1.000000 0.000000 0.000000
vn 0.000000 1.000000 0.000000
vn 0.000000 1.000000 0.000000
vn 1.000000 0.000000 0.000000
vn 1.000000 0.000000 0.000000
vn 1.000000 0.000000 0.000000
vn 1.000000 0.000000 0.000000
vn 0.000000 -1.000000 0.000000
vn 0.000000 -1.000000 0.000000
vn -1.000000 0.000000 0.000000
vn -1.000000 0.000000 0.000000
vn -1.000000 0.000000 0.000000
vn -1.000000 0.000000 0.000000
vn 0.000000 1.000000 0.000000
vn 0.000000 1.000000 0.000000
vn 1.000000 0.000000 0.000000
vn 1.000000 0.000000 0.000000
vn 1.000000 0.000000 0.000000
vn 1.000000 0.000000 0.000000
vn 0.000000 -1.000000 0.000000
vn 0.000000 -1.000000 0.000000
vn -1.000000 0.000000 0.000000
vn -1.000000 0.000000 0.000000
vn -1.000000 0.000000 0.000000
vn -1.000000 0.000000 0.000000
vn 0.000000 0.000000 1.000000
vn 0.000000 0.000000 1.000000
vn 0.000000 0.000000 1.000000
vn 0.000000 0.000000 1.000000
vn 0.000000 -1.000000 0.000000
vn 0.000000 -1.000000 0.000000
vn 0.000000 -1.000000 0.000000
vn 0.000000 -1.000000 0.000000
vn 0.000000 0.000000 -1.000000
vn 0.000000 0.000000 -1.000000
vn 0.000000 0.000000 -1.000000
vn 0.000000 0.000000 -1.000000
vn 0.000000 1.000000 0.000000
vn 0.000000 1.000000 0.000000
vn 0.000000 1.000000 0.000000
vn 0.000000 1.000000 0.000000
vn 0.000000 0.000000 0.000000
vn 0.000000 0.000000 0.000000
vn 0.000000 0.000000 0.000000
vn 0.000000 0.000000 0.000000
vn 0.000000 0.000000 0.000000
vn 0.000000 0.000000 0.000000
vn 0.000000 0.000000 0.000000
vn 0.000000 0.000000 0.000000
vn 0.000000 0.000000 0.000000
vn 0.000000 0.000000 0.000000
vn 0.000000 0.000000 0.000000
vn 0.000000 0.000000 0.000000
vn 0.000000 0.000000 0.000000
vn 0.000000 0.000000 0.000000
vn 0.000000 0.000000 0.000000
vn 0.000000 0.000000 0.000000
vn 0.000000 1.000000 0.000000
vn 0.000000 1.000000 0.000000
vn 1.000000 0.000000 0.000000
vn 1.000000 0.000000 0.000000
vn 0.000000 -1.000000 0.000000
vn 0.000000 -1.000000 0.000000
vn -1.000000 0.000000 0.000000
vn -1.000000 0.000000 0.000000
vn -1.000000 0.000000 0.000000
vn -1.000000 0.000000 0.000000
vn 0.000000 0.000000 -1.000000
vn 0.000000 0.000000 -1.000000
vn 0.000000 0.000000 -1.000000
vn 0.000000 0.000000 -1.000000
vn 0.000000 -1.000000 0.000000
vn 0.000000 -1.000000 0.000000
vn 0.000000 -1.000000 0.000000
vn 0.000000 -1.000000 0.000000
vn 0.000000 0.000000 1.000000
vn 0.000000 0.000000 1.000000
vn 0.000000 0.000000 1.000000
vn 0.000000 0.000000 1.000000
vn 0.000000 1.000000 0.000000
vn 0.000000 1.000000 0.000000
vn 0.000000 1.000000 0.000000
vn 0.000000 1.000000 0.000000
vn 0.000000 0.000000 -1.000000
vn 0.000000 0.000000 -1.000000
vn 0.000000 0.000000 -1.000000
vn 0.000000 0.000000 -1.000000
vn 0.000000 -1.000000 0.000000
vn 0.000000 -1.000000 0.000000
vn 0.000000 -1.000000 0.000000
vn 0.000000 -1.000000 0.000000
vn 0.000000 -0.000000 1.000000
vn 0.000000 -0.000000 1.000000
vn 0.000000 -0.000000 1.000000
vn 0.000000 -0.000000 1.000000
vn 0.000000 1.000000 0.000000
vn 0.000000 1.000000 0.000000
vn 0.000000 1.000000 0.000000
vn 0.000000 1.000000 0.000000
vn 0.000000 0.000000 1.000000
vn 0.000000 0.000000 1.000000
vn 0.000000 0.000000 1.000000
vn 0.000000 0.000000 1.000000
vn 0.000000 -1.000000 0.000000
vn 0.000000 -1.000000 0.000000
vn 0.000000 0.000000 -1.000000
vn 0.000000 0.000000 -1.000000
vn 0.000000 0.000000 -1.000000
vn 0.000000 0.000000 -1.000000
vn 0.000000 1.000000 0.000000
vn 0.000000 1.000000 0.000000
vn -1.000000 0.000000 0.000000
vn -1.000000 0.000000 0.000000
vn -1.000000 0.000000 0.000000
vn -1.000000 0.000000 0.000000
vn 0.000000 -1.000000 0.000000
vn 0.000000 -1.000000 0.000000
vn 0.000000 -1.000000 0.000000
vn 0.000000 -1.000000 0.000000
vn 1.000000 0.000000 0.000000
vn 1.000000 0.000000 0.000000
vn 1.000000 0.000000 0.000000
vn 1.000000 0.000000 0.000000
vn 0.000000 1.000000 0.000000
vn 0.000000 1.000000 0.000000
vn 0.000000 1.000000 0.000000
vn 0.000000 1.000000 0.000000
vn -1.000000 0.000000 0.000000
vn -1.000000 0.000000 0.000000
vn -1.000000 0.000000 0.000000
vn -1.000000 0.000000 0.000000
vn 0.000000 1.000000 0.000000
vn 0.000000 1.000000 0.000000
vn 0.000000 1.000000 0.000000
vn 0.000000 1.000000 0.000000
vn 1.000000 0.000000 0.000000
vn 1.000000 0.000000 0.000000
vn 1.000000 0.000000 0.000000
vn 1.000000 0.000000 0.000000
vn 0.000000 -1.000000 0.000000
vn 0.000000 -1.000000 0.000000
vn 0.000000 -1.000000 0.000000
vn 0.000000 -1.000000 0.000000
vn 0.000000 -1.000000 0.000000
vn 0.000000 -1.000000 0.000000
vn 0.000000 -1.000000 0.000000
vn 0.000000 -1.000000 0.000000
vn 0.000000 -1.000000 0.000000
vn 0.000000 0.000000 -1.000000
vn 0.000000 0.000000 -1.000000
vn 0.000000 0.000000 -1.000000
vn 0.000000 0.000000 -1.000000
vn 0.000000 1.000000 0.000000
vn 0.000000 1.000000 0.000000
vn 0.000000 1.000000 0.000000
vn 0.000000 1.000000 0.000000
vn 0.000000 1.000000 0.000000
vn 0.000000 0.000000 1.000000
vn 0.000000 0.000000 1.000000
vn 0.000000 0.000000 1.000000
vn 0.000000 0.000000 1.000000
vn 0.000000 -1.000000 0.000000
vn 0.000000 -1.000000 0.000000
vn 0.000000 -1.000000 0.000000
vn 0.000000 -1.000000 0.000000
vn 0.000000 -1.000000 0.000000
vn 0.000000 0.000000 -1.000000
vn 0.000000 0.000000 -1.000000
vn 0.000000 0.000000 -1.000000
vn 0.000000 0.000000 -1.000000
vn 0.000000 1.000000 0.000000
vn 0.000000 1.000000 0.000000
vn 0.000000 1.000000 0.000000
vn 0.000000 1.000000 0.000000
vn 0.000000 1.000000 0.000000
vn 0.000000 0.000000 1.000000
vn 0.000000 0.000000 1.000000
vn 0.000000 0.000000 1.000000
vn 0.000000 0.000000 1.000000
vn -1.000000 0.000000 0.000000
vn -1.000000 0.000000 0.000000
vn -1.000000 0.000000 0.000000
vn -1.000000 0.000000 0.000000
vn 0.000000 1.000000 0.000000
vn 0.000000 1.000000 0.000000
vn 0.000000 1.000000 0.000000
vn 0.000000 1.000000 0.000000
vn 1.000000 0.000000 0.000000
vn 1.000000 0.000000 0.000000
vn 1.000000 0.000000 0.000000
vn 1.000000 0.000000 0.000000
vn 0.000000 -1.000000 0.000000
vn 0.000000 -1.000000 0.000000
vn 0.000000 -1.000000 0.000000
vn 0.000000 -1.000000 0.000000
vn -1.000000 0.000000 0.000000
vn -1.000000 0.000000 0.000000
vn -1.000000 0.000000 0.000000
vn -1.000000 0.000000 0.000000
vn 0.000000 -1.000000 0.000000
vn 0.000000 -1.000000 0.000000
vn 0.000000 -1.000000 0.000000
vn 0.000000 -1.000000 0.000000
vn 1.000000 0.000000 0.000000
vn 1.000000 0.000000 0.000000
vn 1.000000 0.000000 0.000000
vn 1.000000 0.000000 0.000000
vn 0.000000 1.000000 0.000000
vn 0.000000 1.000000 0.000000
vn 0.000000 1.000000 -0.000000
vn 0.000000 1.000000 -0.000000
vn -1.000000 0.000000 0.000000
vn -1.000000 0.000000 0.000000
vn -1.000000 0.000000 0.000000
vn -1.000000 0.000000 0.000000
vn 0.000000 -1.000000 0.000000
vn 0.000000 -1.000000 0.000000
vn 1.000000 0.000000 0.000000
vn 1.000000 0.000000 0.000000
vn 1.000000 0.000000 0.000000
vn 1.000000 0.000000 0.000000
vn 0.000000 1.000000 0.000000
vn 0.000000 1.000000 0.000000
vn 0.000000 0.000000 -1.000000
vn 0.000000 0.000000 -1.000000
vn 0.000000 0.000000 -1.000000
vn 0.000000 0.000000 -1.000000
vn 0.000000 -1.000000 0.000000
vn 0.000000 -1.000000 0.000000
vn 0.000000 -1.000000 0.000000
vn 0.000000 -1.000000 0.000000
vn 0.000000 0.000000 1.000000
vn 0.000000 0.000000 1.000000
vn 0.000000 0.000000 1.000000
vn 0.000000 0.000000 1.000000
vn 0.000000 1.000000 0.000000
vn 0.000000 1.000000 0.000000
vn 0.000000 1.000000 0.000000
vn 0.000000 1.000000 0.000000
vn 0.000000 0.000000 -1.000000
vn 0.000000 0.000000 -1.000000
vn 0.000000 0.000000 -1.000000
vn 0.000000 0.000000 -1.000000
vn 0.000000 1.000000 0.000000
vn 0.000000 1.000000 0.000000
vn 0.000000 1.000000 0.000000
vn 0.000000 1.000000 0.000000
vn 0.000000 0.000000 1.000000
vn 0.000000 0.000000 1.000000
vn 0.000000 0.000000 1.000000
vn 0.000000 0.000000 1.000000
vn 0.000000 -1.000000 0.000000
vn 0.000000 -1.000000 0.000000
vn 0.000000 -1.000000 0.000000
vn 0.000000 -1.000000 0.000000
s off
g pCube5
usemtl initialShadingGroup
f 58/155/1 49/156/2 2/157/3 4/158/4
s 1
f 54/67/5 55/68/6 10/69/7 6/70/8
s off
f 53/159/9 54/160/10 6/161/11 8/162/12
s 2
f 52/107/13 53/108/14 8/109/15 11/110/16
s off
f 10/1/17 11/2/18 8/3/19 6/4/20
f 7/5/21 12/6/22 9/7/23 5/8/24
s 1
f 55/68/6 56/73/25 14/74/26 10/69/7
s off
f 17/9/27 18/10/28 19/11/29 20/12/30
s 2
f 51/113/31 52/107/13 11/110/16 15/114/32
s off
f 30/17/33 29/18/34 31/19/35 32/20/36
s 1
f 56/73/25 57/80/37 26/81/38 14/74/26
s 3
f 26/21/39 27/22/40 15/23/41 14/24/42
s 2
f 50/122/43 51/113/31 15/114/32 27/123/44
s off
f 34/27/45 33/28/46 35/29/47 36/30/48
f 41/163/49 42/164/50 43/165/51 44/166/52
s 4
f 38/121/53 39/120/54 19/126/55 18/127/56
s off
f 45/167/57 46/168/58 47/169/59 48/170/60
s 5
f 40/83/61 37/82/62 17/88/63 20/89/64
s off
f 9//65 12//66 21//67 22//68
f 12//69 16//70 23//71 21//72
f 16//73 13//74 24//75 23//76
f 13//77 9//78 22//79 24//80
s 1
f 57/80/37 58/86/81 4/87/82 26/81/38
s 3
f 2/25/83 27/22/40 26/21/39 4/26/84
s 2
f 49/128/85 50/122/43 27/123/44 2/129/86
s off
f 25/31/87 28/32/88 1/33/89 3/34/90
f 22/171/91 21/172/92 29/173/93 30/174/94
f 21/147/95 23/148/96 31/149/97 29/150/98
f 23/175/99 24/176/100 32/177/101 31/178/102
f 24/151/103 22/152/104 30/153/105 32/154/106
f 13/179/107 16/180/108 33/181/109 34/182/110
f 16/124/111 28/130/112 35/137/113 33/138/114
f 28/183/115 25/184/116 36/185/117 35/186/118
f 25/90/119 13/84/120 34/97/121 36/98/122
f 14/187/123 15/188/124 38/189/125 37/190/126
s 4
f 15/114/127 11/110/128 39/120/54 38/121/53
s off
f 11/191/129 10/192/130 40/193/131 39/194/132
s 5
f 10/69/133 14/74/134 37/82/62 40/83/61
s off
f 37/35/135 38/36/136 42/37/137 41/38/138
f 38/121/139 18/127/140 43/134/141 42/135/142
f 18/10/143 17/9/144 44/13/145 43/14/146
f 17/88/147 37/82/148 41/92/149 44/93/150
f 39/39/151 40/40/152 46/41/153 45/42/154
f 40/83/155 20/89/156 47/94/157 46/95/158
f 20/12/159 19/11/160 48/15/161 47/16/162
f 19/126/163 39/120/164 45/132/165 48/133/166
s 2
f 59/131/167 60/125/168 50/122/43 49/128/85
f 60/125/168 61/119/169 51/113/31 50/122/43
f 61/119/169 62/111/170 52/107/13 51/113/31
f 62/111/170 63/112/171 53/108/14 52/107/13
s off
f 69/195/172 70/196/173 71/197/174 72/198/175
s 1
f 64/71/176 65/72/177 55/68/6 54/67/5
f 65/72/177 66/77/178 56/73/25 55/68/6
f 66/77/178 67/85/179 57/80/37 56/73/25
f 67/85/179 68/91/180 58/86/81 57/80/37
s off
f 73/199/181 74/200/182 75/201/183 76/202/184
s 2
f 28/130/185 60/125/168 59/131/167 1/136/186
f 16/124/187 61/119/169 60/125/168 28/130/185
f 12/116/188 62/111/170 61/119/169 16/124/187
f 7/115/189 63/112/171 62/111/170 12/116/188
s off
f 5/207/190 64/208/191 63/209/192 7/210/193
s 1
f 9/75/194 65/72/177 64/71/176 5/76/195
f 13/84/196 66/77/178 65/72/177 9/75/194
f 25/90/197 67/85/179 66/77/178 13/84/196
f 3/96/198 68/91/180 67/85/179 25/90/197
s off
f 1/211/199 59/212/200 68/213/201 3/214/202
f 63/43/203 64/44/204 70/45/205 69/46/206
f 64/71/207 54/67/208 71/78/209 70/79/210
f 54/47/211 53/48/212 72/49/213 71/50/214
f 53/108/215 63/112/216 69/117/217 72/118/218
f 81/51/219 82/52/220 83/53/221 84/54/222
s 6
f 78/140/223 79/139/224 75/141/225 74/142/226
s off
f 85/55/227 86/56/228 87/57/229 88/58/230
s 7
f 80/100/231 77/99/232 73/101/233 76/102/234
s off
f 68/59/235 59/60/236 78/61/237 77/62/238
s 6
f 59/131/239 49/128/240 79/139/224 78/140/223
s off
f 49/63/241 58/64/242 80/65/243 79/66/244
s 7
f 58/86/245 68/91/246 77/99/232 80/100/231
s off
f 77/215/247 78/216/248 82/217/249 81/218/250
f 78/140/251 74/142/252 83/145/253 82/146/254
f 74/200/255 73/199/256 84/203/257 83/204/258
f 73/101/259 77/99/260 81/103/261 84/104/262
f 79/219/263 80/220/264 86/221/265 85/222/266
f 80/100/267 76/102/268 87/105/269 86/106/270
f 76/202/271 75/201/272 88/205/273 87/206/274
f 75/141/275 79/139/276 85/143/277 88/144/278
