# This file uses centimeters as units for non-parametric coordinates.

mtllib metasimplefloor.mtl
g default
v -21.000000 -0.500000 4.000000
v 9.000000 -0.500000 4.000000
v -21.000000 0.000000 4.000000
v 9.000000 0.000000 4.000000
v -21.000000 0.000000 -4.000000
v 9.000000 0.000000 -4.000000
v -21.000000 -0.500000 -4.000000
v 9.000000 -0.500000 -4.000000
v -9.000000 -0.500000 4.000000
v -9.000000 -0.500000 -4.000000
v -9.000000 0.000000 -4.000000
v -9.000000 0.000000 4.000000
v -9.000000 0.000000 18.500000
v -9.000000 -0.500000 18.500000
v 9.000000 -0.500000 18.500000
v 9.000000 0.000000 18.500000
v -8.000000 -0.500000 4.000000
v -8.000000 -0.500000 -4.000000
v -8.000000 0.000000 -4.000000
v -8.000000 0.000000 4.000000
v -8.000000 0.000000 18.500000
v -8.000000 -0.500000 18.500000
v 8.000000 -0.500000 4.000000
v 8.000000 -0.500000 18.500000
v 8.000000 0.000000 18.500000
v 8.000000 0.000000 4.000000
v 8.000000 0.000000 -4.000000
v 8.000000 -0.500000 -4.000000
v -8.000000 0.000000 26.000000
v -8.000000 -0.500000 26.000000
v 8.000000 -0.500000 26.000000
v 8.000000 0.000000 26.000000
v -21.000000 0.000000 -6.000000
v -9.000000 0.000000 -6.000000
v -9.000000 -0.500000 -6.000000
v -21.000000 -0.500000 -6.000000
v -8.000000 0.000000 -6.000000
v -8.000000 -0.500000 -6.000000
v 2.000000 -0.500000 4.000000
v 2.000000 -0.500000 -4.000000
v 2.000000 0.000000 -4.000000
v 2.000000 0.000000 4.000000
v 2.000000 0.000000 18.500000
v 2.000000 0.000000 26.000000
v 2.000000 -0.500000 26.000000
v 2.000000 -0.500000 18.500000
v -2.000000 -0.500000 4.000000
v -2.000000 -0.500000 -4.000000
v -2.000000 0.000000 -4.000000
v -2.000000 0.000000 4.000000
v -2.000000 0.000000 18.500000
v -2.000000 0.000000 26.000000
v -2.000000 -0.500000 26.000000
v -2.000000 -0.500000 18.500000
v -2.000000 -0.500000 -21.000000
v -2.000000 0.000000 -21.000000
v 2.000000 0.000000 -21.000000
v 2.000000 -0.500000 -21.000000
v -2.000000 -0.500000 -11.000000
v -2.000000 0.000000 -11.000000
v 2.000000 0.000000 -11.000000
v 2.000000 -0.500000 -11.000000
v 7.000000 0.000000 -11.000000
v 7.000000 -0.500000 -11.000000
v 7.000000 -0.500000 -21.000000
v 7.000000 0.000000 -21.000000
v -11.000000 -0.500000 -11.000000
v -11.000000 0.000000 -11.000000
v -11.000000 0.000000 -21.000000
v -11.000000 -0.500000 -21.000000
vt 0.873923 0.430565
vt 0.873923 0.304588
vt 0.889670 0.304588
vt 0.889670 0.430565
vt 0.889670 0.658898
vt 0.873923 0.658898
vt 0.873923 0.528985
vt 0.873923 0.403008
vt 0.889670 0.403008
vt 0.889670 0.528985
vt 0.889670 0.560479
vt 0.873923 0.560479
vt 0.889670 0.595910
vt 0.873923 0.595910
vt 0.873923 0.367577
vt 0.889670 0.367577
vt 0.889670 0.540795
vt 0.873923 0.540795
vt 0.873923 0.422692
vt 0.889670 0.422692
vt 0.889670 0.540795
vt 0.873923 0.540795
vt 0.873923 0.422692
vt 0.889670 0.422692
vt 0.889670 0.497490
vt 0.873923 0.497490
vt 0.873923 0.465996
vt 0.889670 0.465996
vt 0.873923 0.403008
vt 0.889670 0.403008
vt 0.889670 0.560479
vt 0.873923 0.560479
vt 0.873923 0.403008
vt 0.889670 0.403008
vt 0.889670 0.560479
vt 0.873923 0.560479
vt 0.873923 0.426628
vt 0.889670 0.426628
vt 0.889670 0.536858
vt 0.873923 0.536858
vt 0.889670 0.536858
vt 0.873923 0.536858
vt 0.873923 0.426628
vt 0.889670 0.426628
vt 0.563137 0.603184
vt 0.563137 0.477207
vt 0.657620 0.477207
vt 0.657620 0.603184
vt 0.500149 0.603184
vt 0.500149 0.477207
vt 0.657620 0.248874
vt 0.563137 0.248874
vt 0.673367 0.477207
vt 0.673367 0.603184
vt 0.405666 0.603184
vt 0.405666 0.477207
vt 0.500149 0.248874
vt 0.563137 0.713414
vt 0.500149 0.713414
vt 0.673367 0.248874
vt 0.563137 0.130771
vt 0.657620 0.130771
vt 0.389919 0.603184
vt 0.389919 0.477207
vt 0.405666 0.248874
vt 0.500149 0.130771
vt 0.563137 0.870886
vt 0.500149 0.870886
vt 0.200953 0.477207
vt 0.200953 0.603184
vt 0.389919 0.248874
vt 0.405666 0.634679
vt 0.389919 0.634679
vt 0.405666 0.130771
vt 0.641873 0.713414
vt 0.641873 0.870886
vt 0.358425 0.870886
vt 0.358425 0.713414
vt 0.200953 0.634679
vt 0.563137 0.477207
vt 0.563137 0.603184
vt 0.657620 0.603184
vt 0.657620 0.477207
vt 0.500149 0.477207
vt 0.500149 0.603184
vt 0.673367 0.603184
vt 0.673367 0.477207
vt 0.563137 0.248874
vt 0.657620 0.248874
vt 0.405666 0.477207
vt 0.405666 0.603184
vt 0.500149 0.713414
vt 0.563137 0.713414
vt 0.500149 0.248874
vt 0.673367 0.248874
vt 0.563137 0.130771
vt 0.657620 0.130771
vt 0.389919 0.477207
vt 0.389919 0.603184
vt 0.405666 0.248874
vt 0.500149 0.870885
vt 0.563137 0.870885
vt 0.500149 0.130771
vt 0.200953 0.603184
vt 0.200953 0.477207
vt 0.389919 0.634679
vt 0.405666 0.634679
vt 0.389919 0.248874
vt 0.405666 0.130771
vt 0.358425 0.713414
vt 0.358425 0.870886
vt 0.641873 0.870885
vt 0.641873 0.713414
vt 0.200953 0.634679
vt 0.889670 0.450249
vt 0.873923 0.450249
vt 0.873923 0.355766
vt 0.889670 0.355766
vt 0.889670 0.513237
vt 0.873923 0.513237
vt 0.889670 0.607720
vt 0.873923 0.607720
vt 0.889670 0.536858
vt 0.873923 0.536858
vt 0.873923 0.442375
vt 0.889670 0.442375
vt 0.873923 0.426628
vt 0.889670 0.426628
vt 0.873923 0.584099
vt 0.873923 0.395134
vt 0.889670 0.395134
vt 0.889670 0.584099
vt 0.873923 0.379387
vt 0.889670 0.379387
vt 0.873923 0.576226
vt 0.873923 0.387260
vt 0.889670 0.387260
vt 0.889670 0.576226
vt 0.873923 0.489617
vt 0.873923 0.473870
vt 0.889670 0.473870
vt 0.889670 0.489617
vt 0.889670 0.473870
vt 0.889670 0.489617
vt 0.873923 0.489617
vt 0.873923 0.473870
vt 0.889670 0.481743
vt 0.873923 0.481743
vt 0.873923 0.418755
vt 0.889670 0.418755
vt 0.889670 0.623467
vt 0.873923 0.623467
vt 0.873923 0.340019
vt 0.889670 0.340019
vt 0.889670 0.528985
vt 0.873923 0.528985
vt 0.873923 0.434502
vt 0.889670 0.434502
vt 0.889670 0.521111
vt 0.873923 0.521111
vt 0.873923 0.442375
vt 0.889670 0.442375
vt 0.873923 0.410881
vt 0.889670 0.410881
vt 0.889670 0.552605
vt 0.873923 0.552605
vn 0.000000 0.000000 1.000000
vn 0.000000 0.000000 1.000000
vn 0.000000 0.000000 1.000000
vn 0.000000 0.000000 1.000000
vn 0.000000 1.000000 0.000000
vn 0.000000 1.000000 0.000000
vn 0.000000 1.000000 0.000000
vn 0.000000 1.000000 0.000000
vn 0.000000 0.000000 -1.000000
vn 0.000000 0.000000 -1.000000
vn 0.000000 0.000000 -1.000000
vn 0.000000 0.000000 -1.000000
vn 0.000000 -1.000000 0.000000
vn 0.000000 -1.000000 0.000000
vn 0.000000 -1.000000 0.000000
vn 0.000000 -1.000000 0.000000
vn 1.000000 0.000000 0.000000
vn 1.000000 0.000000 0.000000
vn 1.000000 0.000000 0.000000
vn 1.000000 0.000000 0.000000
vn -1.000000 0.000000 0.000000
vn -1.000000 0.000000 0.000000
vn -1.000000 0.000000 0.000000
vn -1.000000 0.000000 0.000000
vn 0.000000 -1.000000 0.000000
vn 0.000000 -1.000000 0.000000
vn 0.000000 -1.000000 0.000000
vn 0.000000 -1.000000 0.000000
vn 0.000000 0.000000 -1.000000
vn 0.000000 0.000000 -1.000000
vn 0.000000 0.000000 -1.000000
vn 0.000000 0.000000 -1.000000
vn 0.000000 1.000000 0.000000
vn 0.000000 1.000000 0.000000
vn 0.000000 1.000000 0.000000
vn 0.000000 1.000000 0.000000
vn 0.000000 0.000000 1.000000
vn 0.000000 0.000000 1.000000
vn 0.000000 0.000000 1.000000
vn 0.000000 0.000000 1.000000
vn -1.000000 0.000000 0.000000
vn -1.000000 0.000000 0.000000
vn -1.000000 0.000000 0.000000
vn -1.000000 0.000000 0.000000
vn 0.000000 -1.000000 0.000000
vn 0.000000 -1.000000 0.000000
vn 0.000000 -1.000000 0.000000
vn 0.000000 -1.000000 0.000000
vn 1.000000 0.000000 0.000000
vn 1.000000 0.000000 0.000000
vn 1.000000 0.000000 0.000000
vn 1.000000 0.000000 0.000000
vn 0.000000 1.000000 0.000000
vn 0.000000 1.000000 0.000000
vn 0.000000 1.000000 0.000000
vn 0.000000 1.000000 0.000000
vn 0.000000 -1.000000 0.000000
vn 0.000000 -1.000000 0.000000
vn 0.000000 0.000000 -1.000000
vn 0.000000 0.000000 -1.000000
vn 0.000000 1.000000 0.000000
vn 0.000000 1.000000 0.000000
vn 0.000000 1.000000 0.000000
vn 0.000000 1.000000 0.000000
vn 0.000000 1.000000 0.000000
vn 0.000000 1.000000 0.000000
vn 0.000000 0.000000 1.000000
vn 0.000000 0.000000 1.000000
vn 0.000000 0.000000 1.000000
vn 0.000000 0.000000 1.000000
vn 0.000000 -1.000000 0.000000
vn 0.000000 -1.000000 0.000000
vn 0.000000 -1.000000 0.000000
vn 0.000000 -1.000000 0.000000
vn 0.000000 -1.000000 0.000000
vn 0.000000 -1.000000 0.000000
vn 0.000000 0.000000 1.000000
vn 0.000000 0.000000 1.000000
vn 0.000000 0.000000 1.000000
vn 0.000000 0.000000 1.000000
vn 0.000000 1.000000 0.000000
vn 0.000000 1.000000 0.000000
vn 0.000000 1.000000 0.000000
vn 0.000000 1.000000 0.000000
vn 0.000000 0.000000 -1.000000
vn 0.000000 0.000000 -1.000000
vn 0.000000 -1.000000 0.000000
vn 0.000000 -1.000000 0.000000
vn -1.000000 0.000000 0.000000
vn -1.000000 0.000000 0.000000
vn -1.000000 0.000000 0.000000
vn -1.000000 0.000000 0.000000
vn 0.000000 -1.000000 0.000000
vn 0.000000 -1.000000 0.000000
vn 0.000000 -1.000000 0.000000
vn 0.000000 -1.000000 0.000000
vn 1.000000 0.000000 0.000000
vn 1.000000 0.000000 0.000000
vn 1.000000 0.000000 0.000000
vn 1.000000 0.000000 0.000000
vn 0.000000 1.000000 0.000000
vn 0.000000 1.000000 0.000000
vn 0.000000 1.000000 0.000000
vn 0.000000 1.000000 0.000000
vn 0.000000 1.000000 0.000000
vn 0.000000 1.000000 0.000000
vn 0.000000 1.000000 0.000000
vn 0.000000 1.000000 0.000000
vn 0.000000 -1.000000 0.000000
vn 0.000000 -1.000000 0.000000
vn 0.000000 -1.000000 0.000000
vn 0.000000 -1.000000 0.000000
vn -1.000000 0.000000 0.000000
vn -1.000000 0.000000 0.000000
vn -1.000000 0.000000 0.000000
vn -1.000000 0.000000 0.000000
vn 0.000000 1.000000 0.000000
vn 0.000000 1.000000 0.000000
vn 0.000000 1.000000 0.000000
vn 0.000000 1.000000 0.000000
vn 1.000000 0.000000 0.000000
vn 1.000000 0.000000 0.000000
vn 1.000000 0.000000 0.000000
vn 1.000000 0.000000 0.000000
vn 0.000000 -1.000000 0.000000
vn 0.000000 -1.000000 0.000000
vn 0.000000 -1.000000 0.000000
vn 0.000000 -1.000000 0.000000
vn 0.000000 -1.000000 0.000000
vn 0.000000 -1.000000 0.000000
vn 0.000000 0.000000 -1.000000
vn 0.000000 0.000000 -1.000000
vn 0.000000 0.000000 -1.000000
vn 0.000000 0.000000 -1.000000
vn 0.000000 1.000000 0.000000
vn 0.000000 1.000000 0.000000
vn 0.000000 1.000000 0.000000
vn 0.000000 1.000000 0.000000
vn 0.000000 1.000000 0.000000
vn 0.000000 1.000000 0.000000
vn 0.000000 0.000000 1.000000
vn 0.000000 0.000000 1.000000
vn 0.000000 -1.000000 0.000000
vn 0.000000 -1.000000 0.000000
vn 0.000000 -1.000000 0.000000
vn 0.000000 -1.000000 0.000000
vn 0.000000 0.000000 -1.000000
vn 0.000000 0.000000 -1.000000
vn 0.000000 0.000000 -1.000000
vn 0.000000 0.000000 -1.000000
vn 0.000000 1.000000 0.000000
vn 0.000000 1.000000 0.000000
vn 0.000000 0.000000 1.000000
vn 0.000000 0.000000 1.000000
vn 0.000000 -1.000000 0.000000
vn 0.000000 -1.000000 0.000000
vn -1.000000 0.000000 0.000000
vn -1.000000 0.000000 0.000000
vn -1.000000 0.000000 0.000000
vn -1.000000 0.000000 0.000000
vn 0.000000 1.000000 0.000000
vn 0.000000 1.000000 0.000000
vn 0.000000 1.000000 0.000000
vn 0.000000 1.000000 0.000000
vn 1.000000 0.000000 0.000000
vn 1.000000 0.000000 0.000000
vn 1.000000 0.000000 0.000000
vn 1.000000 0.000000 0.000000
vn 0.000000 -1.000000 0.000000
vn 0.000000 -1.000000 0.000000
vn 0.000000 -1.000000 0.000000
vn 0.000000 -1.000000 0.000000
vn -1.000000 0.000000 0.000000
vn -1.000000 0.000000 0.000000
vn -1.000000 0.000000 0.000000
vn -1.000000 0.000000 0.000000
vn 0.000000 1.000000 0.000000
vn 0.000000 1.000000 0.000000
vn 1.000000 0.000000 0.000000
vn 1.000000 0.000000 0.000000
vn 1.000000 0.000000 0.000000
vn 1.000000 0.000000 0.000000
vn 0.000000 -1.000000 0.000000
vn 0.000000 -1.000000 0.000000
vn 0.000000 0.000000 1.000000
vn 0.000000 0.000000 1.000000
vn 0.000000 0.000000 1.000000
vn 0.000000 0.000000 1.000000
vn 0.000000 -1.000000 0.000000
vn 0.000000 -1.000000 0.000000
vn 0.000000 -1.000000 0.000000
vn 0.000000 -1.000000 0.000000
vn 0.000000 0.000000 -1.000000
vn 0.000000 0.000000 -1.000000
vn 0.000000 0.000000 -1.000000
vn 0.000000 0.000000 -1.000000
vn 0.000000 1.000000 0.000000
vn 0.000000 1.000000 0.000000
vn 0.000000 1.000000 0.000000
vn 0.000000 1.000000 0.000000
vn 0.000000 0.000000 1.000000
vn 0.000000 0.000000 1.000000
vn 0.000000 0.000000 1.000000
vn 0.000000 0.000000 1.000000
vn 0.000000 1.000000 0.000000
vn 0.000000 1.000000 0.000000
vn 0.000000 1.000000 0.000000
vn 0.000000 1.000000 0.000000
vn 0.000000 0.000000 -1.000000
vn 0.000000 0.000000 -1.000000
vn 0.000000 0.000000 -1.000000
vn 0.000000 0.000000 -1.000000
vn 0.000000 -1.000000 0.000000
vn 0.000000 -1.000000 0.000000
vn 0.000000 -1.000000 0.000000
vn 0.000000 -1.000000 0.000000
s 1
g pCube4
usemtl initialShadingGroup
f 44/115/1 45/116/2 31/117/3 32/118/4
s 2
f 41/45/5 42/46/6 26/47/7 27/48/8
s 3
f 40/123/9 41/124/10 27/125/11 28/126/12
s 4
f 39/80/13 40/81/14 28/82/15 23/83/16
s off
f 2/1/17 8/2/18 6/3/19 4/4/20
f 7/7/21 1/8/22 3/9/23 5/10/24
s 4
f 7/104/25 10/99/26 9/98/27 1/105/28
s 6
f 33/129/29 34/130/30 35/131/31 36/132/32
s 2
f 3/69/33 12/64/34 11/63/35 5/70/36
s off
f 1/135/37 9/136/38 12/137/39 3/138/40
f 12/13/41 9/14/42 14/15/43 13/16/44
s 8
f 46/88/45 39/80/46 23/83/47 24/89/48
s off
f 2/1/49 4/4/50 16/5/51 15/6/52
s 9
f 25/51/53 26/47/54 42/46/55 43/52/56
s 4
f 9/98/27 10/99/26 18/91/57 17/90/58
s 6
f 35/131/31 34/130/30 37/133/59 38/134/60
s 2
f 11/63/35 12/64/34 20/56/61 19/55/62
s 9
f 21/65/63 20/56/64 12/64/65 13/71/66
s off
f 13/139/67 14/140/68 22/141/69 21/142/70
s 8
f 9/98/71 17/90/72 22/100/73 14/108/74
f 24/89/48 23/83/47 2/87/75 15/95/76
s off
f 25/143/77 24/144/78 15/145/79 16/146/80
s 9
f 4/53/81 26/47/54 25/51/53 16/60/82
s 2
f 27/48/8 26/47/7 4/53/83 6/54/84
s 3
f 28/126/12 27/125/11 6/127/85 8/128/86
s 4
f 23/83/16 28/82/15 8/86/87 2/87/88
s off
f 21/17/89 22/18/90 30/19/91 29/20/92
s 12
f 45/96/93 46/88/94 24/89/95 31/97/96
s off
f 24/21/97 25/22/98 32/23/99 31/24/100
s 13
f 25/51/101 43/52/102 44/61/103 32/62/104
s off
f 5/70/105 11/63/106 34/73/107 33/79/108
f 10/99/109 7/104/110 36/114/111 35/106/112
f 7/7/113 5/10/114 33/11/115 36/12/116
f 11/63/117 19/55/118 37/72/119 34/73/120
f 19/25/121 18/26/122 38/27/123 37/28/124
f 18/91/125 10/99/126 35/106/127 38/107/128
s 4
f 47/84/129 48/85/130 40/81/14 39/80/13
s off
f 55/147/131 56/148/132 57/149/133 58/150/134
s 2
f 49/49/135 50/50/136 42/46/6 41/45/5
s 9
f 43/52/56 42/46/55 50/50/137 51/57/138
s 13
f 44/61/103 43/52/102 51/57/139 52/66/140
s 1
f 52/119/141 53/120/142 45/116/2 44/115/1
s 12
f 53/103/143 54/94/144 46/88/94 45/96/93
s 8
f 54/94/145 47/84/146 39/80/46 46/88/45
s 4
f 17/90/58 18/91/57 48/85/130 47/84/129
s off
f 18/155/147 19/156/148 49/157/149 48/158/150
s 2
f 19/55/62 20/56/61 50/50/136 49/49/135
s 9
f 51/57/138 50/50/137 20/56/64 21/65/63
s 13
f 52/66/140 51/57/139 21/65/151 29/74/152
s 1
f 29/121/153 30/122/154 53/120/142 52/119/141
s 12
f 22/100/155 54/94/144 53/103/143 30/109/156
s 8
f 22/100/73 17/90/72 47/84/146 54/94/145
s off
f 67/29/157 68/30/158 69/31/159 70/32/160
s 14
f 60/59/161 61/58/162 57/67/163 56/68/164
s off
f 63/33/165 64/34/166 65/35/167 66/36/168
s 15
f 62/93/169 59/92/170 55/101/171 58/102/172
s off
f 48/37/173 49/38/174 60/39/175 59/40/176
s 14
f 49/49/177 41/45/178 61/58/162 60/59/161
s off
f 41/41/179 40/42/180 62/43/181 61/44/182
s 15
f 40/81/183 48/85/184 59/92/170 62/93/169
s off
f 61/159/185 62/160/186 64/161/187 63/162/188
f 62/93/189 58/102/190 65/112/191 64/113/192
f 58/150/193 57/149/194 66/153/195 65/154/196
f 57/67/197 61/58/198 63/75/199 66/76/200
f 59/163/201 60/164/202 68/165/203 67/166/204
f 60/59/205 56/68/206 69/77/207 68/78/208
f 56/148/209 55/147/210 70/151/211 69/152/212
f 55/101/213 59/92/214 67/110/215 70/111/216
